<?xml version="1.0" encoding="utf-8"?>
<!-- Generator: Adobe Illustrator 21.0.2, SVG Export Plug-In . SVG Version: 6.00 Build 0)  -->
<svg version="1.1" id="Layer_1" xmlns:sketch="http://www.bohemiancoding.com/sketch/ns"
	 xmlns="http://www.w3.org/2000/svg" xmlns:xlink="http://www.w3.org/1999/xlink" x="0px" y="0px" viewBox="0 0 160 32"
	 style="enable-background:new 0 0 160 32;" xml:space="preserve" width="160px" height="32px">
<style type="text/css">
	.st0{fill:#D2409B;}
	.st1{fill:#23ADCE;}
	.st2{fill:#BADD1D;}
	.st3{fill:#4A4A4A;}
</style>
<title>Logo Copy 2</title>
<desc>Created with Sketch.</desc>
<g id="Page-1" sketch:type="MSPage">
	<g id="_x31_.0-Homepage" transform="translate(-180.000000, -25.000000)" sketch:type="MSArtboardGroup">
		<g id="Group" transform="translate(-9.000000, -19.000000)" sketch:type="MSLayerGroup">
			<g id="Logo-Copy-2" transform="translate(189.000000, 44.000000)" sketch:type="MSShapeGroup">
				<g id="Imported-Layers-Copy">
					<path id="Fill-1" class="st0" d="M10,31.6H7.2c-3.9,0-7.1-3.2-7.1-7v-0.1L10,20V31.6"/>
					<path id="Fill-2" class="st1" d="M20.7,31.6h-8.2V18.8l8.2-3.8V31.6"/>
					<path id="Fill-3" class="st2" d="M31.9,9.9v14.6c0,3.9-3.2,7-7.1,7h-1.6V13.9L31.9,9.9"/>
					<path id="Fill-4" class="st3" d="M7.2,0.2h17.6c3.9,0,7.1,3.2,7.1,7v0.4L0.1,22.2v-15C0.1,3.3,3.3,0.2,7.2,0.2"/>
				</g>
				<path id="ALLOVUE" class="st3" d="M59.6,22.8l-1.5-3.3h-6.6l-1.5,3.3h-3.7l6.8-15.5h3.4l6.8,15.5H59.6z M54.9,12l-2,4.5h3.9
					L54.9,12z M66.4,22.8V7.4h3.5v12.4h6.7v3.1H66.4z M80.4,22.8V7.4h3.5v12.4h6.7v3.1H80.4z M104.6,11.5c-0.9-1-2-1.5-3.3-1.5
					c-1.3,0-2.4,0.5-3.3,1.5s-1.3,2.2-1.3,3.5s0.4,2.6,1.3,3.5s2,1.5,3.3,1.5c1.3,0,2.4-0.5,3.3-1.5c0.9-1,1.3-2.1,1.3-3.5
					S105.5,12.5,104.6,11.5L104.6,11.5z M101.3,23c-2.3,0-4.3-0.8-5.9-2.3C93.8,19.2,93,17.3,93,15s0.8-4.2,2.4-5.7
					C97,7.8,98.9,7,101.3,7s4.3,0.8,5.9,2.3s2.4,3.4,2.4,5.7s-0.8,4.2-2.4,5.7S103.6,23,101.3,23L101.3,23z M119.1,17.2l4-9.9h3.8
					l-6.3,15.5h-3l-6.3-15.5h3.8L119.1,17.2z M136.5,19.9c1,0,1.8-0.4,2.3-1.1s0.9-1.7,0.9-2.9V7.4h3.5V16c0,2.2-0.6,4-1.9,5.2
					c-1.3,1.2-2.9,1.8-4.8,1.8c-2,0-3.6-0.6-4.8-1.8c-1.3-1.2-1.9-2.9-1.9-5.2V7.4h3.5v8.6c0,1.2,0.3,2.2,0.9,2.9
					C134.8,19.6,135.6,19.9,136.5,19.9L136.5,19.9z M159.4,7.4v3.1h-7.8v3.2h7v2.9h-7v3.2h8.1v3.1h-11.6V7.4H159.4z"/>
			</g>
		</g>
	</g>
</g>
</svg>
